<?xml version="1.0" encoding="UTF-8"?>
<svg xmlns="http://www.w3.org/2000/svg" id="Layer_1" data-name="Layer 1" viewBox="0 0 24 24">
  <path d="M11.236,1.008c-.548,.069-.937,.569-.868,1.117,.138,1.1,.497,4.131,.497,4.933,0,2.478-1.645,3.219-2.817,3.431V2c0-.552-.448-1-1-1s-1,.448-1,1V10.448c-1.151-.259-2.619-1.05-2.619-3.391,0-.801,.359-3.832,.498-4.932,.069-.548-.319-1.048-.867-1.117-.547-.073-1.049,.319-1.117,.867-.053,.417-.513,4.11-.513,5.182,0,3.316,2.177,5.036,4.619,5.426v9.517c0,.552,.448,1,1,1s1-.448,1-1V12.512c2.521-.327,4.817-2.05,4.817-5.455,0-1.072-.46-4.764-.513-5.182-.069-.549-.574-.936-1.117-.868Z"/>
  <path d="M18.7,2.05c-1.771-1.043-3.425-1.063-3.469-1.05-.551,.002-.997,.449-.997,1V22c0,.552,.448,1,1,1s1-.448,1-1v-2.91c2.972-.228,4.688-.893,4.767-.924,.284-.112,.501-.348,.589-.639,.04-.132,.98-3.271,.98-7.453,0-4.746-2.105-6.983-3.871-8.023Zm1.108,14.404c-.621,.183-1.849,.485-3.573,.629V3.166c.416,.111,.923,.297,1.45,.607,1.915,1.129,2.886,3.249,2.886,6.301,0,2.95-.515,5.38-.763,6.38Z"/>
</svg>
